<svg xmlns="http://www.w3.org/2000/svg" version="1.1" xmlns:xlink="http://www.w3.org/1999/xlink" xmlns:svgjs="http://svgjs.dev/svgjs" width="1000" height="623" viewBox="0 0 1000 623"><g transform="matrix(1,0,0,1,-0.6060606060606233,0.2522267206477409)"><svg viewBox="0 0 396 247" data-background-color="#ffffff" preserveAspectRatio="xMidYMid meet" height="623" width="1000" xmlns="http://www.w3.org/2000/svg" xmlns:xlink="http://www.w3.org/1999/xlink"><g id="tight-bounds" transform="matrix(1,0,0,1,0.2400000000000091,-0.09999999999999432)"><svg viewBox="0 0 395.52 247.2" height="247.2" width="395.52"><g><svg></svg></g><g><svg viewBox="0 0 395.52 247.2" height="247.2" width="395.52"><g transform="matrix(1,0,0,1,75.54432,49.737883252305124)"><svg viewBox="0 0 244.43135999999998 147.72423349538974" height="147.72423349538974" width="244.43135999999998"><g><svg viewBox="0 0 244.43135999999998 147.72423349538974" height="147.72423349538974" width="244.43135999999998"><g><svg viewBox="0 0 244.43135999999998 147.72423349538974" height="147.72423349538974" width="244.43135999999998"><g><svg viewBox="0 0 244.43135999999998 147.72423349538974" height="147.72423349538974" width="244.43135999999998"><g><svg viewBox="0 0 244.43135999999998 147.72423349538974" height="147.72423349538974" width="244.43135999999998"><g><svg viewBox="0 0 244.43135999999998 147.72423349538974" height="147.72423349538974" width="244.43135999999998"><g transform="matrix(1,0,0,1,0,0)"><svg width="244.43135999999998" viewBox="1.600000023841858 -35.75 59.650001525878906 36.04999923706055" height="147.72423349538974" data-palette-color="#ee3e38"><path d="M26.9-31.65L25.2-28.85Q24.45-29.7 23.45-30.38 22.45-31.05 21.2-31.55 19.95-32.05 18.53-32.35 17.1-32.65 15.5-32.65L15.5-32.65Q10.85-32.65 8.68-30.88 6.5-29.1 6.5-26.05L6.5-26.05Q6.5-23.95 7.53-22.75 8.55-21.55 10.75-20.8 12.95-20.05 16.35-19.25L16.35-19.25Q20.15-18.45 22.9-17.35 25.65-16.25 27.15-14.38 28.65-12.5 28.65-9.3L28.65-9.3Q28.65-6.85 27.7-5.05 26.75-3.25 25.05-2.05 23.35-0.85 21-0.28 18.65 0.3 15.85 0.3L15.85 0.3Q13.1 0.3 10.58-0.28 8.05-0.85 5.8-1.98 3.55-3.1 1.6-4.85L1.6-4.85 3.35-7.7Q4.3-6.7 5.63-5.83 6.95-4.95 8.58-4.25 10.2-3.55 12.08-3.18 13.95-2.8 15.95-2.8L15.95-2.8Q20.2-2.8 22.58-4.35 24.95-5.9 24.95-8.95L24.95-8.95Q24.95-11.15 23.75-12.48 22.55-13.8 20.15-14.65 17.75-15.5 14.25-16.3L14.25-16.3Q10.55-17.15 8-18.2 5.45-19.25 4.17-20.98 2.9-22.7 2.9-25.55L2.9-25.55Q2.9-28.85 4.53-31.13 6.15-33.4 9-34.58 11.85-35.75 15.55-35.75L15.55-35.75Q17.9-35.75 19.93-35.27 21.95-34.8 23.68-33.9 25.4-33 26.9-31.65L26.9-31.65ZM30.3-35.5L34.15-35.5 45.75-16.4 57.45-35.5 61.25-35.5 47.5-13.2 47.5 0 44 0 44-13.3 30.3-35.5Z" opacity="1" transform="matrix(1,0,0,1,0,0)" fill="#ee3e38" class="undefined-text-0" data-fill-palette-color="primary" id="text-0"></path></svg></g></svg></g></svg></g></svg></g></svg></g></svg></g></svg></g><path d="M139.557 43.738L139.557 0.837 385.082 0.837 385.082 246.363 139.557 246.363 139.557 203.462 152.879 203.462 152.879 233.041 371.76 233.041 371.76 14.159 152.879 14.159 152.879 43.738Z" fill="#ee3e38" stroke="transparent" data-fill-palette-color="primary"></path></svg></g><defs></defs></svg><rect width="395.52" height="247.2" fill="none" stroke="none" visibility="hidden"></rect></g></svg></g></svg>